<svg width="22" height="22" viewBox="0 0 22 22" fill="none" xmlns="http://www.w3.org/2000/svg">
<path d="M13.6516 11L21.0735 3.57813C21.4258 3.22651 21.6239 2.74936 21.6243 2.25166C21.6248 1.75396 21.4275 1.27646 21.0759 0.924221C20.7242 0.571981 20.2471 0.373847 19.7494 0.373407C19.2517 0.372968 18.7742 0.570258 18.422 0.921878L11.0001 8.34375L3.5782 0.921878C3.22596 0.569637 2.74822 0.37175 2.25008 0.37175C1.75194 0.37175 1.27419 0.569637 0.921954 0.921878C0.569713 1.27412 0.371826 1.75186 0.371826 2.25C0.371826 2.74815 0.569713 3.22589 0.921954 3.57813L8.34383 11L0.921954 18.4219C0.569713 18.7741 0.371826 19.2519 0.371826 19.75C0.371826 20.2481 0.569713 20.7259 0.921954 21.0781C1.27419 21.4304 1.75194 21.6283 2.25008 21.6283C2.74822 21.6283 3.22596 21.4304 3.5782 21.0781L11.0001 13.6563L18.422 21.0781C18.7742 21.4304 19.2519 21.6283 19.7501 21.6283C20.2482 21.6283 20.726 21.4304 21.0782 21.0781C21.4304 20.7259 21.6283 20.2481 21.6283 19.75C21.6283 19.2519 21.4304 18.7741 21.0782 18.4219L13.6516 11Z" fill="#181818"/>
</svg>
